<?xml version="1.0" encoding="UTF-8" standalone="no"?>
<!-- Uploaded to: SVG Repo, www.svgrepo.com, Transformed by: SVG Repo Mixer Tools -->

<svg
   fill="#ffffff"
   height="800"
   width="800.00171"
   version="1.1"
   id="Layer_1"
   viewBox="0 0 472.61601 472.615"
   xml:space="preserve"
   sodipodi:docname="laptop_shield.svg"
   inkscape:version="1.2.2 (b0a8486541, 2022-12-01)"
   xmlns:inkscape="http://www.inkscape.org/namespaces/inkscape"
   xmlns:sodipodi="http://sodipodi.sourceforge.net/DTD/sodipodi-0.dtd"
   xmlns="http://www.w3.org/2000/svg"
   xmlns:svg="http://www.w3.org/2000/svg"><defs
   id="defs1966" /><sodipodi:namedview
   id="namedview1964"
   pagecolor="#ffffff"
   bordercolor="#000000"
   borderopacity="0.25"
   inkscape:showpageshadow="2"
   inkscape:pageopacity="0.0"
   inkscape:pagecheckerboard="0"
   inkscape:deskcolor="#d1d1d1"
   showgrid="false"
   inkscape:zoom="0.295"
   inkscape:cx="305.08475"
   inkscape:cy="400"
   inkscape:window-width="2174"
   inkscape:window-height="1318"
   inkscape:window-x="0"
   inkscape:window-y="0"
   inkscape:window-maximized="1"
   inkscape:current-layer="Layer_1" />

<g
   id="SVGRepo_bgCarrier"
   stroke-width="0" />

<g
   id="SVGRepo_tracerCarrier"
   stroke-linecap="round"
   stroke-linejoin="round" />

<g
   id="SVGRepo_iconCarrier"
   style="fill:#ffffff"> <g
   id="g1948"
   style="fill:#ffffff"> <g
   id="g1946"
   style="fill:#ffffff"> <path
   d="M 363.717,67.446 C 363.323,63.409 360.468,60.16 356.726,58.978 274.708,34.855 243.692,3.348 243.495,3.052 241.625,1.083 239.065,0 236.308,0 c -2.658,0 -5.317,1.083 -7.089,3.052 -0.295,0.295 -31.311,31.803 -113.329,55.926 -3.742,1.182 -6.597,4.431 -6.991,8.468 -0.098,1.575 -14.769,158.425 123.569,217.305 1.182,0.492 2.56,0.788 3.84,0.788 1.28,0 2.658,-0.295 3.84,-0.788 C 378.486,225.871 363.815,69.022 363.717,67.446 Z"
   id="path1944"
   style="fill:#ffffff" /> </g> </g> <g
   id="g1954"
   style="fill:#ffffff"> <g
   id="g1952"
   style="fill:#ffffff"> <path
   d="m 0,393.846 v 33.575 l 45.194,45.194 h 382.228 l 45.194,-45.194 v -33.575 z m 206.769,49.213 h -19.692 v -19.692 h 19.692 z m 39.385,0 h -19.692 v -19.692 h 19.692 z m 39.384,0 h -19.692 v -19.692 h 19.692 z"
   id="path1950"
   style="fill:#ffffff" /> </g> </g> <g
   id="g1960"
   style="fill:#ffffff"> <g
   id="g1958"
   style="fill:#ffffff"> <path
   d="m 380.13,128 c -9.12,56.309 -39.056,135.194 -132.27,174.867 -3.783,1.576 -7.716,2.365 -11.552,2.365 -3.836,0 -7.77,-0.789 -11.384,-2.288 C 131.53,263.192 101.581,184.2 92.461,128 H 19.692 V 374.154 H 452.923 V 128 Z"
   id="path1956"
   style="fill:#ffffff" /> </g> </g> </g>

</svg>
