<?xml version="1.0" encoding="UTF-8" standalone="no"?>
<!-- Uploaded to: SVG Repo, www.svgrepo.com, Generator: SVG Repo Mixer Tools -->

<svg
   width="571.875"
   height="696.875"
   viewBox="0 0 366 446"
   version="1.1"
   id="svg469"
   sodipodi:docname="locked_door.svg"
   inkscape:version="1.2.2 (b0a8486541, 2022-12-01)"
   xmlns:inkscape="http://www.inkscape.org/namespaces/inkscape"
   xmlns:sodipodi="http://sodipodi.sourceforge.net/DTD/sodipodi-0.dtd"
   xmlns="http://www.w3.org/2000/svg"
   xmlns:svg="http://www.w3.org/2000/svg">
  <defs
     id="defs473" />
  <sodipodi:namedview
     id="namedview471"
     pagecolor="#ffffff"
     bordercolor="#000000"
     borderopacity="0.25"
     inkscape:showpageshadow="2"
     inkscape:pageopacity="0.0"
     inkscape:pagecheckerboard="0"
     inkscape:deskcolor="#d1d1d1"
     showgrid="false"
     inkscape:zoom="1.3"
     inkscape:cx="245.76923"
     inkscape:cy="336.15385"
     inkscape:window-width="2174"
     inkscape:window-height="1318"
     inkscape:window-x="0"
     inkscape:window-y="0"
     inkscape:window-maximized="1"
     inkscape:current-layer="svg469" />
  <path
     fill="#000000"
     d="M 32,0 V 398 H 334 V 336 H 174 V 190 h 32 v -55 c 0,-38 36.5,-57 73,-57 20.5,0 41,6 55,18 V 0 Z m 247,96 c -27.5,0 -55,13 -55,39 v 55 H 334 V 135 C 334,109 306.5,96 279,96 Z M 87,174 c 18.1,0 33,14.9 33,33 0,18.1 -14.9,33 -33,33 -18.1,0 -33,-14.9 -33,-33 0,-18.1 14.9,-33 33,-33 z m 0,18 c -8.4,0 -15,6.6 -15,15 0,8.4 6.6,15 15,15 8.4,0 15,-6.6 15,-15 0,-8.4 -6.6,-15 -15,-15 z m 105,16 V 318 H 366 V 208 Z m 87,23 a 16,16 0 0 1 16,16 16,16 0 0 1 -10.9,15.2 L 295,295 h -32 l 10.9,-32.8 A 16,16 0 0 1 263,247 16,16 0 0 1 279,231 Z M 0,416 v 30 h 366 v -30 z"
     id="path467"
     style="fill:#ffffff" />
</svg>
